<?xml version="1.0" standalone="no"?>
<!DOCTYPE svg PUBLIC "-//W3C//DTD SVG 20010904//EN"
 "http://www.w3.org/TR/2001/REC-SVG-20010904/DTD/svg10.dtd">
<svg version="1.0" xmlns="http://www.w3.org/2000/svg"
 width="119.000000pt" height="119.000000pt" viewBox="0 0 119.000000 119.000000"
 preserveAspectRatio="xMidYMid meet">
<metadata>
Created by potrace 1.12, written by Peter Selinger 2001-2015
</metadata>
<g transform="translate(0.000000,119.000000) scale(0.100000,-0.100000)"
fill="#000000" stroke="none">
<path d="M511 1084 c-69 -58 -103 -298 -55 -389 21 -41 58 -68 106 -80 l28 -7
-14 39 c-26 75 -27 115 -6 223 30 155 25 240 -15 240 -7 0 -27 -12 -44 -26z"/>
<path d="M629 1074 c27 -50 28 -149 2 -235 -11 -35 -23 -85 -26 -111 -8 -53 1
-118 15 -118 6 0 34 24 63 53 64 65 77 103 77 224 0 72 -4 97 -22 133 -25 48
-57 75 -101 86 l-28 7 20 -39z"/>
<path d="M303 580 c-66 -33 -176 -127 -198 -171 -22 -42 -20 -96 5 -104 35
-11 63 5 150 88 128 121 153 137 216 137 51 0 53 1 45 22 -4 12 -23 30 -42 40
-50 27 -106 23 -176 -12z"/>
<path d="M718 580 c-20 -11 -40 -25 -43 -31 -17 -27 67 -74 198 -111 121 -33
177 -68 209 -132 l15 -29 12 36 c28 84 -40 182 -174 248 -85 42 -163 49 -217
19z"/>
<path d="M646 504 c-11 -28 -6 -104 8 -132 29 -56 110 -106 248 -152 76 -25
121 -22 156 11 18 16 20 24 12 40 -18 32 -84 69 -178 99 -116 36 -149 54 -198
106 -33 35 -43 41 -48 28z"/>
<path d="M490 492 c-19 -9 -74 -54 -123 -100 -94 -90 -149 -121 -211 -122 -39
0 -39 0 -20 -21 50 -55 156 -65 212 -21 15 12 44 31 65 42 50 27 115 86 133
121 8 16 14 48 14 74 0 52 -11 56 -70 27z"/>
</g>
</svg>
