<?xml version="1.0" encoding="UTF-8" ?>
<!DOCTYPE svg PUBLIC "-//W3C//DTD SVG 1.1//EN" "http://www.w3.org/Graphics/SVG/1.1/DTD/svg11.dtd">
<svg width="119pt" height="119pt" viewBox="0 0 119 119" version="1.1" xmlns="http://www.w3.org/2000/svg">
<path fill="#ffffff" d=" M 0.00 0.00 L 119.00 0.00 L 119.00 119.00 L 0.00 119.00 L 0.00 0.00 Z" />
<path fill="#87583b" d=" M 46.15 17.44 C 47.38 12.75 51.16 8.62 56.03 7.72 C 58.67 8.59 59.88 11.48 60.39 13.99 C 61.55 24.55 56.07 34.47 56.42 44.99 C 56.29 49.71 58.46 54.03 59.54 58.52 C 52.35 58.34 45.37 53.29 43.80 46.12 C 41.69 36.59 43.48 26.67 46.15 17.44 Z" />
<path fill="#87583b" d=" M 60.78 7.76 C 66.29 8.03 71.66 10.86 74.32 15.81 C 78.08 23.23 77.84 31.86 77.25 39.94 C 75.93 48.24 70.34 57.76 61.01 58.05 C 59.01 54.36 59.44 50.06 60.08 46.07 C 61.31 37.26 65.85 29.02 65.07 19.94 C 65.04 15.49 62.58 11.66 60.78 7.76 Z" />
<path fill="#87583b" d=" M 27.28 62.24 C 32.67 58.84 39.31 56.13 45.69 58.16 C 49.61 59.24 52.49 62.25 54.99 65.28 C 48.54 66.73 41.60 67.94 36.56 72.58 C 31.23 77.57 26.00 82.78 19.90 86.83 C 16.81 88.91 12.96 89.58 9.36 88.66 C 8.14 84.50 8.53 79.82 11.23 76.31 C 15.57 70.60 21.35 66.18 27.28 62.24 Z" />
<path fill="#87583b" d=" M 66.45 65.05 C 69.69 61.47 74.04 58.42 79.04 58.40 C 85.48 57.89 91.42 60.97 96.85 64.04 C 102.42 67.33 108.12 71.30 111.07 77.25 C 112.35 81.97 112.47 87.45 109.57 91.64 C 107.91 88.13 106.32 84.30 102.98 82.04 C 93.43 75.03 80.72 75.49 70.77 69.30 C 69.02 68.23 67.80 66.55 66.45 65.05 Z" />
<path fill="#87583b" d=" M 65.20 66.70 C 69.49 70.45 72.90 75.42 78.34 77.66 C 87.02 81.37 96.90 82.53 104.55 88.45 C 106.47 89.90 107.51 92.13 108.74 94.13 C 105.54 98.07 100.09 100.13 95.13 98.77 C 87.65 96.91 80.25 94.34 73.60 90.41 C 68.92 87.69 64.78 83.41 63.74 77.93 C 62.79 74.13 63.95 70.27 65.20 66.70 Z" />
<path fill="#87583b" d=" M 21.72 90.62 C 35.07 85.91 40.94 69.85 55.30 67.01 C 57.19 70.21 58.19 74.08 56.85 77.69 C 54.66 85.42 47.70 90.35 40.99 94.01 C 35.20 97.09 28.82 100.74 22.00 99.28 C 17.31 98.49 13.81 95.01 11.00 91.41 C 14.57 91.37 18.32 92.04 21.72 90.62 Z" />
</svg>
